<svg version="1" xmlns="http://www.w3.org/2000/svg" width="1600" height="1600" viewBox="0 0 1200.000000 1200.000000"><path d="M385 471.8c0 .8 14.5 74 15.5 78 .5 2.2.8 2.3 12.7 2l12.2-.3 7.8-38.5c4.2-21.2 7.7-39.3 7.8-40.3 0-1.5-1-1.7-7.5-1.7-6.9 0-7.5.2-8 2.2-.3 1.3-3 16.2-6 33.3-3.1 17-5.7 31.4-5.8 31.9-.2.5-2.9-14.5-6.2-33.3l-5.9-34.1h-8.3c-4.6 0-8.3.4-8.3.8zM461.2 494.1c-5.2 1.6-10.9 8-12.8 14.5-2.4 8.4-1.6 28.3 1.4 34.1 4.4 8.5 10.5 10.8 25.9 10 5.6-.2 10.6-.8 11.2-1.1.6-.4 1.1-3.6 1.1-7.3 0-5.5-.2-6.4-1.6-5.9-.9.3-5.2.9-9.7 1.2-9.6.8-12.2-.6-13.6-6.9l-.9-3.7h30.1l-.5-11.3c-.5-13.1-2.5-18.1-8.4-21.8-4.2-2.6-16.4-3.6-22.2-1.8zM475 508c1.3 1.3 2 3.3 2 6v4h-14.3l.6-4.2c.9-7.1 7.3-10.2 11.7-5.8zM524.5 493.9c-1.1.5-3 1.8-4.2 3l-2.1 2-.6-2.5c-.6-2.2-1.1-2.4-7.1-2.4H504v58h16v-16.1c0-9.5.5-17.8 1.2-20.1 1.6-5.4 5.2-8.1 10.1-7.5l3.8.5-.3-7.6-.3-7.7-4-.2c-2.2-.1-4.9.2-6 .6z"/><path d="M543.4 504.2c1.8 5.7 5.9 18.7 9.2 29 4.7 15 6.3 18.8 7.7 18.8 1.9 0 2.2 2.2.7 5.1-.8 1.4-2.1 1.9-5.5 1.9H551v12H180v24h840v-24H568.2l3.8-3.8c2.1-2.1 4.3-5.5 4.9-7.7 1.8-6.3 15.1-63.1 15.1-64.4 0-.7-2.6-1.1-7.3-1.1h-7.3l-4.4 20.2c-2.3 11.2-4.6 20.9-4.9 21.5-.4.7-3.1-8.4-6-20.2l-5.3-21.5h-16.6l3.2 10.2z"/><path d="M180 547v12h192v-24H180v12zM180 619v12h840v-24H180v12zM828 655v12h192v-24H828v12zM435.5 679.9c-7.2 1.9-10.9 4.9-14.3 11.6-3.1 6.4-4.2 13.6-4.2 28.7 0 17.6 1.3 25.2 5.3 31.9 3.9 6.4 8.4 8.9 17.1 9.6 7.2.6 20.5-.4 22.6-1.7 1.1-.7 1.4-5.1 1.4-22.2v-21.3l-11.2-.3c-6.2-.1-11.2.1-11.3.5-.1.4-.2 3.6-.3 7.1l-.1 6.2h7.5v18h-3.9c-5.9 0-8.9-3.1-10.2-10.5-1.4-7.5-.6-33.8 1.1-38.3 1.9-5.1 5.8-6.6 15.3-5.7 4.4.3 8.6.9 9.3 1.2 1.1.4 1.4-1 1.4-6.5 0-5.7-.3-7.1-1.7-7.7-2.6-1.1-20.3-1.5-23.8-.6zM708.5 679.9c-7.2 1.9-10.9 4.9-14.3 11.6-3.1 6.4-4.2 13.6-4.2 28.7 0 17.6 1.3 25.2 5.3 31.9 3.9 6.4 8.4 8.9 17.1 9.6 7.2.6 20.5-.4 22.6-1.7 1.1-.7 1.4-5.1 1.4-22.2v-21.3l-11.2-.3c-6.2-.1-11.2.1-11.3.5-.1.4-.2 3.6-.3 7.1l-.1 6.2h7.5v18h-3.9c-5.9 0-8.9-3.1-10.2-10.5-1.4-7.5-.6-33.8 1.1-38.3 1.9-5.1 5.8-6.6 15.3-5.7 4.4.3 8.6.9 9.3 1.2 1.1.4 1.4-1 1.4-6.5 0-5.7-.3-7.1-1.7-7.7-2.6-1.1-20.3-1.5-23.8-.6zM629 691.2v11.3l-4.9-.3c-6.4-.5-14.8 2-18.5 5.4-5.1 4.8-7 10.6-7.4 23.4-.5 13.4.8 20.7 4.6 25.1 5.3 6.3 15.2 7.8 23.6 3.5 4.7-2.4 4.8-2.4 5.3-.5.5 1.6 1.5 1.9 6.9 1.9h6.4v-81h-16v11.2zm0 38.1c0 12.9-.2 14.5-2 16.4-3.8 4.2-9.9 4.2-12.2 0-1.7-3.1-1.5-21.4.3-25.2 1.7-3.6 5.2-5.5 10.2-5.5h3.7v14.3zM760.5 702.5c-.5.2-2.7.6-4.7 1l-3.8.6v13.2l3.8-.7c2-.3 6.6-.9 10.2-1.2 7.6-.7 10.6.9 11.6 6.3l.7 3.3h-6.2c-17.2 0-25.3 7.4-23.8 21.7.3 2.9 1.4 6.6 2.4 8.3 4.1 7 16.7 9.2 25.8 4.5 4.6-2.3 5-2.3 6.8-.8 1.2 1.1 4.1 1.9 8.3 2.1l6.4.4v-5.8c0-5.2-.3-6.1-2.2-6.9-2.2-1-2.3-1.5-2.8-18.5-.3-10.5-1-18.3-1.7-19.5-2-3.5-5.7-6.3-9.8-7.4-3.6-1-18.6-1.4-21-.6zm17.5 35.9c0 4.5-2.1 8.6-4.8 9.3-6.1 1.6-9.4-.5-9-5.6.4-4.3 3.2-6.1 9.6-6.1 3.7 0 4.2.2 4.2 2.4zM829.5 702.9c-1.1.5-3 1.8-4.2 3l-2.1 2-.6-2.5c-.6-2.2-1.1-2.4-7.1-2.4H809v58h16v-16.1c0-9.5.5-17.8 1.2-20.1 1.6-5.4 5.2-8.1 10.1-7.5l3.8.5-.3-7.6-.3-7.7-4-.2c-2.2-.1-4.9.2-6 .6zM859.5 702.5c-.5.2-2.7.6-4.7 1l-3.8.6v13.2l3.8-.7c2-.3 6.6-.9 10.2-1.2 7.6-.7 10.6.9 11.6 6.3l.7 3.3h-6.2c-17.2 0-25.3 7.4-23.8 21.7.3 2.9 1.4 6.6 2.4 8.3 4.1 7 16.7 9.2 25.8 4.5 4.6-2.3 5-2.3 6.8-.8 1.2 1.1 4.1 1.9 8.3 2.1l6.4.4v-5.8c0-5.2-.3-6.1-2.2-6.9-2.2-1-2.3-1.5-2.8-18.5-.3-10.5-1-18.3-1.7-19.5-2-3.5-5.7-6.3-9.8-7.4-3.6-1-18.6-1.4-21-.6zm17.5 35.9c0 4.5-2.1 8.6-4.8 9.3-6.1 1.6-9.4-.5-9-5.6.4-4.3 3.2-6.1 9.6-6.1 3.7 0 4.2.2 4.2 2.4zM919.1 703.5c-5.5 1.7-10.8 6.8-12.1 11.5-2 7.2-.7 16.7 2.9 21.1 1.7 2.1 1.7 2.6.4 5.8-1.9 4.6-1.2 12.4 1.4 15.9l2.1 2.7 12.4-.3c10.7-.3 12.7-.1 14.2 1.3 2.4 2.4 1.7 6.7-1.4 8.3-2.5 1.3-19.5 1-26.9-.4l-3.1-.7v6.2c0 5.8.1 6.1 2.8 6.8 1.5.4 9.7.8 18.2.8 14.7 0 15.7-.1 20-2.5 6.2-3.5 8.2-7.6 7.8-16.2-.4-7.6-2.3-11-7.9-14.3-2.9-1.7-5.2-2-15.1-2-11.4 0-11.8-.1-11.8-2.1s.6-2.2 9.3-2.6c10.9-.5 17.2-2.9 20.8-7.9 2.1-2.9 2.4-4.5 2.4-11.7V715h6.5v-12.1l-10.2.1c-5.7.1-14.3-.1-19.3-.4-6.4-.4-10.3-.2-13.4.9zm19.6 13.8c2 2 1.9 9.5-.2 11.6-2 2-12.5 2.2-14.8.2-2-1.6-2.3-9-.4-11.3.6-.9 2.1-1.9 3.2-2.2 3.5-.9 10.6.1 12.2 1.7zM984 703.2c-5.4 1.9-10.7 7.9-12.6 14.4-2.4 8.4-1.6 28.3 1.4 34.1 4.4 8.5 10.5 10.8 25.9 10 5.6-.2 10.6-.8 11.2-1.1.6-.4 1.1-3.6 1.1-7.3 0-5.5-.2-6.4-1.6-5.9-.9.3-5.2.9-9.7 1.2-9.6.8-12.2-.6-13.6-6.9l-.9-3.7h30.1l-.5-11.3c-.5-13.1-2.5-18.1-8.4-21.8-4.3-2.6-16.6-3.6-22.4-1.7zm14 13.8c1.3 1.3 2 3.3 2 6v4h-14.3l.6-4.2c.9-7.1 7.3-10.2 11.7-5.8zM489.7 704.5c-4.8 1.7-8.3 4.8-11 10-3 5.6-3.7 23.7-1.2 32.1 3.1 10.6 10.2 15.4 23 15.4 8.5 0 13.4-1.7 17.6-5.9 5.4-5.4 7.2-12.4 6.7-26.5-.4-11.9-1.5-15.5-6.6-20.9-4.9-5.2-19.7-7.4-28.5-4.2zm16 12.9c2.7 2.4 2.8 2.7 3.1 13.9.4 13.9-.7 17.2-6.4 18.3-4.5.8-8.1-.8-9.4-4.2-1.4-3.5-1.3-21.4.1-25.3 1.9-5.4 8-6.7 12.6-2.7zM550.7 704.5c-4.8 1.7-8.3 4.8-11 10-3 5.6-3.7 23.7-1.2 32.1 3.1 10.6 10.2 15.4 23 15.4 8.5 0 13.4-1.7 17.6-5.9 5.4-5.4 7.2-12.4 6.7-26.5-.4-11.9-1.5-15.5-6.6-20.9-4.9-5.2-19.7-7.4-28.5-4.2zm16 12.9c2.7 2.4 2.8 2.7 3.1 13.9.4 13.9-.7 17.2-6.4 18.3-4.5.8-8.1-.8-9.4-4.2-1.4-3.5-1.3-21.4.1-25.3 1.9-5.4 8-6.7 12.6-2.7z"/></svg>